<svg width="150" height="150" viewBox="0 0 150 150" fill="none" xmlns="http://www.w3.org/2000/svg">
<path d="M133.929 0H16.0714C11.809 0 7.72119 1.69324 4.70721 4.70721C1.69323 7.72119 0 11.809 0 16.0714L0 133.929C0 138.191 1.69323 142.279 4.70721 145.293C7.72119 148.307 11.809 150 16.0714 150H62.0257V99.0034H40.9319V75H62.0257V56.7054C62.0257 35.8962 74.4141 24.4018 93.3884 24.4018C102.475 24.4018 111.978 26.0223 111.978 26.0223V46.4464H101.508C91.192 46.4464 87.9743 52.8482 87.9743 59.4141V75H111.003L107.32 99.0034H87.9743V150H133.929C138.191 150 142.279 148.307 145.293 145.293C148.307 142.279 150 138.191 150 133.929V16.0714C150 11.809 148.307 7.72119 145.293 4.70721C142.279 1.69324 138.191 0 133.929 0V0Z" fill="#4267B2"/>
</svg>
