<svg width="150" height="150" viewBox="0 0 150 150" fill="none" xmlns="http://www.w3.org/2000/svg">
<path d="M38.0361 149.469C29.1155 149.064 24.2696 147.579 21.0465 146.322C16.7756 144.659 13.7308 142.68 10.5255 139.479C7.32012 136.278 5.33629 133.233 3.68235 128.962C2.42518 125.739 0.940649 120.893 0.534966 111.973C0.089161 102.33 0 99.4368 0 75.0067C0 50.5766 0.0980771 47.6878 0.530508 38.0361C0.93619 29.1155 2.42964 24.2785 3.67789 21.0465C5.34074 16.7756 7.32458 13.7308 10.521 10.521C13.7219 7.32012 16.7667 5.33183 21.042 3.67789C24.2652 2.42072 29.1111 0.93619 38.0316 0.530508C47.6788 0.089161 50.5766 0 74.9978 0C99.4279 0 102.317 0.0980771 111.968 0.530508C120.889 0.93619 125.726 2.42964 128.958 3.67789C133.229 5.33183 136.274 7.32012 139.479 10.521C142.684 13.7219 144.659 16.7712 146.322 21.042C147.579 24.2652 149.064 29.1111 149.469 38.0316C149.911 47.6833 150 50.5721 150 75.0022C150 99.4234 149.911 102.321 149.469 111.973C149.064 120.893 147.57 125.739 146.322 128.962C144.659 133.233 142.68 136.278 139.479 139.479C136.278 142.68 133.229 144.659 128.958 146.322C125.735 147.579 120.889 149.064 111.968 149.469C102.326 149.911 99.4279 150 74.9978 150C50.5766 150 47.6788 149.915 38.0361 149.469" fill="url(#paint0_radial_233_600)"/>
<path d="M38.0361 149.469C29.1155 149.064 24.2696 147.579 21.0465 146.322C16.7756 144.659 13.7308 142.68 10.5255 139.479C7.32012 136.278 5.33629 133.233 3.68235 128.962C2.42518 125.739 0.940649 120.893 0.534966 111.973C0.089161 102.33 0 99.4368 0 75.0067C0 50.5766 0.0980771 47.6878 0.530508 38.0361C0.93619 29.1155 2.42964 24.2785 3.67789 21.0465C5.34074 16.7756 7.32458 13.7308 10.521 10.521C13.7219 7.32012 16.7667 5.33183 21.042 3.67789C24.2652 2.42072 29.1111 0.93619 38.0316 0.530508C47.6788 0.089161 50.5766 0 74.9978 0C99.4279 0 102.317 0.0980771 111.968 0.530508C120.889 0.93619 125.726 2.42964 128.958 3.67789C133.229 5.33183 136.274 7.32012 139.479 10.521C142.684 13.7219 144.659 16.7712 146.322 21.042C147.579 24.2652 149.064 29.1111 149.469 38.0316C149.911 47.6833 150 50.5721 150 75.0022C150 99.4234 149.911 102.321 149.469 111.973C149.064 120.893 147.57 125.739 146.322 128.962C144.659 133.233 142.68 136.278 139.479 139.479C136.278 142.68 133.229 144.659 128.958 146.322C125.735 147.579 120.889 149.064 111.968 149.469C102.326 149.911 99.4279 150 74.9978 150C50.5766 150 47.6788 149.915 38.0361 149.469" fill="url(#paint1_radial_233_600)"/>
<path d="M56.5831 75.3196C56.5831 65.0612 64.8969 56.7429 75.1553 56.7429C85.4137 56.7429 93.732 65.0612 93.732 75.3196C93.732 85.578 85.4137 93.8963 75.1553 93.8963C64.8969 93.8963 56.5831 85.578 56.5831 75.3196V75.3196ZM46.5409 75.3196C46.5409 91.1234 59.3515 103.934 75.1553 103.934C90.9591 103.934 103.77 91.1234 103.77 75.3196C103.77 59.5158 90.9591 46.7052 75.1553 46.7052C59.3515 46.7052 46.5413 59.5149 46.5413 75.3196H46.5409ZM98.2159 45.5706C98.2154 46.8932 98.607 48.1862 99.3414 49.2862C100.076 50.3862 101.12 51.2437 102.341 51.7503C103.563 52.2569 104.908 52.3899 106.205 52.1324C107.502 51.8749 108.694 51.2385 109.63 50.3036C110.565 49.3688 111.202 48.1775 111.461 46.8805C111.72 45.5834 111.588 44.2388 111.082 43.0167C110.576 41.7946 109.72 40.7499 108.62 40.0147C107.521 39.2794 106.228 38.8867 104.906 38.8862H104.903C103.13 38.887 101.43 39.5915 100.176 40.8448C98.9225 42.0981 98.2174 43.7978 98.2159 45.5706V45.5706ZM52.6422 120.679C47.2091 120.432 44.2561 119.527 42.2937 118.762C39.692 117.75 37.8356 116.543 35.8839 114.594C33.9322 112.645 32.724 110.791 31.7156 108.189C30.9506 106.227 30.0456 103.273 29.7987 97.8403C29.5285 91.9664 29.4746 90.2019 29.4746 75.3205C29.4746 60.4391 29.533 58.6795 29.7987 52.8007C30.0461 47.3676 30.9578 44.4195 31.7156 42.4522C32.7285 39.8505 33.9348 37.9941 35.8839 36.0424C37.833 34.0907 39.6875 32.8825 42.2937 31.8741C44.2552 31.1091 47.2091 30.2041 52.6422 29.9572C58.5161 29.687 60.2806 29.6331 75.1553 29.6331C90.03 29.6331 91.7963 29.6906 97.6751 29.9581C103.108 30.2055 106.056 31.1172 108.024 31.875C110.625 32.8834 112.482 34.0942 114.433 36.0433C116.385 37.9924 117.589 39.8514 118.602 42.4531C119.367 44.4146 120.272 47.3685 120.519 52.8016C120.789 58.6804 120.843 60.44 120.843 75.3214C120.843 90.2028 120.789 91.9624 120.519 97.8412C120.271 103.274 119.362 106.227 118.602 108.19C117.589 110.791 116.382 112.648 114.433 114.595C112.484 116.542 110.625 117.75 108.024 118.763C106.062 119.528 103.108 120.433 97.6751 120.68C91.8012 120.95 90.0367 121.004 75.1553 121.004C60.2739 121.004 58.5143 120.95 52.6422 120.68V120.679ZM52.1807 19.9315C46.2484 20.2016 42.1947 21.1423 38.6546 22.5198C34.9905 23.9424 31.8846 25.8509 28.7831 28.9474C25.6817 32.044 23.7781 35.1504 22.3555 38.8189C20.978 42.3612 20.0373 46.4127 19.7672 52.345C19.4925 58.2867 19.4297 60.1863 19.4297 75.3196C19.4297 90.4529 19.4925 92.3525 19.7672 98.2942C20.0373 104.227 20.978 108.278 22.3555 111.82C23.7781 115.484 25.6821 118.597 28.7831 121.692C31.8841 124.787 34.9861 126.693 38.6546 128.119C42.2014 129.497 46.2484 130.438 52.1807 130.708C58.1256 130.978 60.022 131.045 75.1553 131.045C90.2886 131.045 92.1882 130.982 98.1299 130.708C104.063 130.438 108.114 129.497 111.656 128.119C115.32 126.693 118.426 124.788 121.527 121.692C124.629 118.595 126.529 115.484 127.955 111.82C129.333 108.278 130.278 104.226 130.543 98.2942C130.814 92.348 130.876 90.4529 130.876 75.3196C130.876 60.1863 130.814 58.2867 130.543 52.345C130.273 46.4123 129.333 42.359 127.955 38.8189C126.529 35.1548 124.624 32.0489 121.527 28.9474C118.431 25.846 115.32 23.9424 111.66 22.5198C108.114 21.1423 104.062 20.1972 98.1343 19.9315C92.1917 19.66 90.2931 19.594 75.162 19.594C60.0309 19.594 58.1278 19.6569 52.183 19.9315" fill="white"/>
<defs>
<radialGradient id="paint0_radial_233_600" cx="0" cy="0" r="1" gradientUnits="userSpaceOnUse" gradientTransform="translate(9.70785 146.714) scale(190.444)">
<stop offset="0.09" stop-color="#FA8F21"/>
<stop offset="0.78" stop-color="#D82D7E"/>
</radialGradient>
<radialGradient id="paint1_radial_233_600" cx="0" cy="0" r="1" gradientUnits="userSpaceOnUse" gradientTransform="translate(103.9 141.897) scale(167.593)">
<stop offset="0.64" stop-color="#8C3AAA" stop-opacity="0"/>
<stop offset="1" stop-color="#8C3AAA"/>
</radialGradient>
</defs>
</svg>
