<svg width="1000" height="500" viewBox="0 0 1000 500" fill="none" xmlns="http://www.w3.org/2000/svg">
<g clip-path="url(#clip0_233_586)">
<path d="M513.455 62.858C554.545 57.979 595.63 53.698 637.13 55.396C723.135 58.9115 806.055 74.96 882.445 116.719C919.875 137.167 952.83 162.998 976.27 199.471C1011 253.523 1007.39 315.635 966.87 365.813C926.62 415.704 873.21 445.839 813.585 464.925C667.575 511.685 522.855 508.67 380.619 448.948C354.813 438.114 330.633 424.099 309.084 405.922C307.266 401.234 310.088 397.814 312.48 394.489C341.108 354.644 362.179 310.422 385.618 267.586C403.053 235.729 420.799 203.991 436.585 171.249C440.77 162.567 444.812 153.79 446.462 144.271C448.28 133.628 443.353 128.342 432.614 128.773C427.161 128.988 421.9 130.471 416.59 131.571C398.365 135.326 398.987 135.493 395.304 154.005C391.932 170.914 383.8 186.221 375.668 201.265C347.255 253.786 319.201 306.475 290.692 358.949C287.2 365.359 285.143 373.18 277.011 375.954C258.428 355.888 245.249 332.88 238.696 306.212C239.485 299.348 245.68 297.219 250.105 293.823C259.623 286.552 267.062 277.703 271.941 266.821C273.926 262.396 275.815 257.565 272.347 251.969C263.522 256.106 256.801 263.162 248.478 267.682C244.317 269.954 240.968 274.69 235.156 272.442C236.209 229.869 256.084 195.883 285.071 166.777C330.418 121.287 386.909 95.672 447.706 78.2365C453.35 87.7555 460.932 88.114 469.973 83.283C479.516 78.1645 489.537 73.9555 498.553 67.8325C503 64.819 507.425 61.375 513.455 62.858Z" fill="black"/>
<path d="M235.151 272.47C246.799 264.529 258.517 256.733 270.045 248.601C275.164 244.99 276.91 245.898 277.507 252.14C278.919 266.467 271.456 276.942 262.44 286.246C255.265 293.636 246.655 299.616 238.69 306.217C202.241 327.025 164.07 343.24 122.215 349.482C105.186 352.017 87.99 352.711 70.9855 350.367C17.1244 342.977 -9.1842 304.901 2.89385 250.729C17.9137 183.236 54.2675 128.203 105.186 82.4025C144.769 46.814 188.68 18.4964 241.321 6.29885C269.615 -0.254407 298.339 -3.26799 326.8 5.12685C341.294 9.40795 356.433 15.0285 359.829 32.153C363.226 49.2296 351.554 60.04 339.763 69.846C334.023 74.6055 327.853 78.815 321.132 83.8375C318.932 77.356 317.258 71.903 315.225 66.5935C305.371 40.9544 285.688 29.0916 258.446 31.2441C235.319 33.0618 214.439 41.0262 195.545 53.798C133.433 95.796 91.243 152.646 70.3635 224.875C68.2825 232.026 67.1105 239.561 66.5605 246.999C63.4515 289.308 87.775 312.722 130.323 309.9C168.949 307.341 203.055 292.847 235.151 272.47Z" fill="#BA0B27"/>
<path d="M276.981 375.954C306.303 322.093 335.721 268.328 364.851 214.347C372.959 199.304 380.206 183.805 387.668 168.427C390.777 162.041 394.532 155.129 393.097 148.145C390.155 133.843 398.622 131.428 409.361 129.897C415.531 129.012 421.558 127.17 427.705 126.022C446.504 122.53 453.942 130.686 448.728 149.03C444.232 164.792 436.817 179.309 428.925 193.516C389.462 264.597 355.189 338.596 309.101 405.922C285.28 434.909 257.656 459.328 223.789 476.022C202.91 486.33 180.93 492.334 157.348 489.392C152.039 488.722 146.61 487.359 141.754 485.182C121.497 476.07 118.579 458.922 134.627 443.567C139.124 439.262 144.17 435.411 149.384 432.039C157.037 427.112 165.097 422.807 173.42 417.976C175.669 425.055 171.268 429.982 170.67 435.603C169.115 450.144 177.702 459.854 192.315 459.423C205.541 459.041 216.208 452.727 226.062 444.738C248.926 426.203 263.563 401.497 276.981 375.954Z" fill="#BA0B27"/>
<path d="M513.455 62.864C497.476 71.187 482.959 82.2605 465.882 88.479C453.278 93.071 449.116 90.6075 447.705 78.2425C449.667 73.6505 451.508 69.0345 453.589 64.5145C459.233 52.3885 465.643 44.3763 481.548 41.1954C512.45 35.0009 540.525 19.5506 568.005 3.98072C569.465 3.16755 570.52 1.85207 573.82 4.00459C564.3 21.4879 550.665 35.2162 534.955 47.1747C527.92 52.556 520.63 57.65 513.455 62.864Z" fill="#BA0B27"/>
<path d="M510.345 265.635C508.715 265.773 507.07 266.105 505.41 266.631C503.75 267.129 502.475 267.932 501.59 269.038C501.01 269.702 500.415 270.685 499.805 271.985C499.224 273.286 498.518 274.821 497.688 276.592C496.858 278.362 496.014 280.106 495.157 281.821C494.299 283.537 493.192 285.252 491.836 286.968C492.943 288.296 494.299 289.748 495.904 291.325C497.508 292.875 498.878 293.996 500.01 294.687C501.12 295.324 502.68 295.863 504.7 296.306C506.75 296.749 508.425 296.998 509.725 297.053V300H492.625L486.441 292.944C485.528 293.94 484.476 294.978 483.286 296.057C482.124 297.108 480.893 298.022 479.593 298.797C478.154 299.626 476.701 300.276 475.235 300.747C473.796 301.217 472.094 301.452 470.13 301.452C468.082 301.452 466.048 301.148 464.029 300.539C462.009 299.958 460.169 299.017 458.509 297.717C456.904 296.444 455.603 294.812 454.607 292.82C453.611 290.827 453.113 288.448 453.113 285.681C453.113 282.25 454.012 279.151 455.811 276.384C457.637 273.589 461.026 270.629 465.979 267.502C463.738 264.542 461.995 261.982 460.75 259.824C459.505 257.666 458.882 255.245 458.882 252.561C458.882 250.652 459.256 248.909 460.003 247.332C460.777 245.727 461.857 244.33 463.24 243.14C464.513 242.061 466.062 241.217 467.888 240.608C469.715 239.999 471.568 239.695 473.45 239.695C475.663 239.695 477.6 240.055 479.261 240.774C480.948 241.466 482.318 242.378 483.369 243.513C484.338 244.564 485.071 245.782 485.569 247.165C486.095 248.549 486.358 249.932 486.358 251.316C486.358 254.636 485.32 257.5 483.245 259.907C481.197 262.287 478.361 264.431 474.737 266.34C477.337 269.854 479.883 273.064 482.373 275.969C484.864 278.847 487.257 281.683 489.553 284.477C491.407 281.517 492.846 278.736 493.87 276.135C494.894 273.506 495.406 271.196 495.406 269.204C495.406 268.318 494.755 267.627 493.455 267.129C492.182 266.603 490.411 266.105 488.142 265.635V262.688H510.345V265.635ZM481.004 252.146C481.004 249.324 480.381 247.166 479.136 245.672C477.891 244.15 476.12 243.389 473.823 243.389C472.523 243.389 471.444 243.652 470.586 244.177C469.728 244.703 468.995 245.367 468.386 246.169C467.833 246.944 467.432 247.774 467.183 248.659C466.934 249.545 466.809 250.334 466.809 251.026C466.809 252.935 467.307 254.872 468.303 256.836C469.3 258.773 470.849 261.125 472.952 263.892C475.802 262.287 477.849 260.557 479.094 258.703C480.367 256.822 481.004 254.636 481.004 252.146ZM484.241 290.537C481.668 287.272 478.762 283.703 475.525 279.829C472.316 275.927 469.742 272.635 467.805 269.951C465.564 271.501 463.973 273.327 463.032 275.43C462.119 277.505 461.663 279.884 461.663 282.568C461.663 286.331 462.728 289.458 464.859 291.948C467.017 294.411 469.894 295.642 473.491 295.642C475.511 295.642 477.49 295.213 479.427 294.356C481.391 293.47 482.996 292.197 484.241 290.537ZM589.91 300H565.38V297.053C567.54 296.915 569.325 296.638 570.735 296.223C572.175 295.808 572.895 295.296 572.895 294.687C572.895 294.438 572.865 294.134 572.81 293.774C572.755 293.415 572.67 293.096 572.56 292.82L567.665 279.621H547.035C546.26 281.558 545.625 283.246 545.125 284.685C544.655 286.124 544.23 287.452 543.84 288.669C543.48 289.859 543.23 290.827 543.095 291.574C542.955 292.322 542.885 292.93 542.885 293.401C542.885 294.507 543.755 295.365 545.5 295.974C547.245 296.583 549.21 296.942 551.395 297.053V300H529.23V297.053C529.95 296.998 530.85 296.845 531.93 296.596C533.01 296.32 533.895 295.96 534.585 295.517C535.69 294.77 536.55 293.996 537.16 293.193C537.765 292.363 538.36 291.229 538.945 289.79C541.905 282.403 545.17 274.101 548.74 264.887C552.305 255.674 555.49 247.47 558.285 240.276H561.605L581.235 291.076C581.65 292.156 582.12 293.027 582.645 293.691C583.17 294.355 583.905 295.005 584.845 295.642C585.485 296.029 586.315 296.361 587.335 296.638C588.36 296.887 589.22 297.025 589.91 297.053V300ZM566.17 275.927L557.245 253.1L548.49 275.927H566.17ZM617.965 279.953C619.1 280.949 619.97 282.098 620.58 283.399C621.19 284.699 621.495 286.29 621.495 288.171C621.495 291.962 620.07 295.061 617.22 297.468C614.395 299.875 610.73 301.079 606.22 301.079C603.84 301.079 601.64 300.65 599.62 299.792C597.63 298.934 596.205 298.146 595.345 297.427L594.515 300.124H591.405L590.99 285.888H593.855C594.075 286.968 594.545 288.227 595.265 289.665C595.985 291.104 596.855 292.405 597.88 293.567C598.96 294.784 600.245 295.808 601.74 296.638C603.26 297.468 604.96 297.884 606.845 297.884C609.5 297.884 611.545 297.288 612.985 296.098C614.425 294.881 615.145 293.152 615.145 290.91C615.145 289.748 614.91 288.752 614.44 287.922C613.995 287.064 613.33 286.318 612.445 285.681C611.535 285.045 610.415 284.478 609.085 283.98C607.755 283.454 606.275 282.942 604.645 282.444C603.345 282.056 601.89 281.531 600.285 280.866C598.71 280.175 597.355 279.372 596.22 278.459C595 277.491 594.005 276.301 593.23 274.89C592.455 273.479 592.07 271.819 592.07 269.909C592.07 266.561 593.315 263.726 595.805 261.402C598.295 259.077 601.63 257.915 605.805 257.915C607.41 257.915 609.045 258.123 610.705 258.538C612.39 258.953 613.76 259.451 614.81 260.032L615.765 257.874H618.755L619.375 271.03H616.515C615.935 268.097 614.675 265.718 612.735 263.892C610.83 262.038 608.49 261.111 605.725 261.111C603.455 261.111 601.67 261.678 600.37 262.812C599.07 263.947 598.42 265.316 598.42 266.921C598.42 268.166 598.625 269.204 599.04 270.034C599.485 270.864 600.135 271.57 600.99 272.151C601.82 272.704 602.86 273.23 604.105 273.728C605.375 274.198 606.94 274.738 608.795 275.346C610.62 275.927 612.335 276.605 613.94 277.38C615.575 278.155 616.915 279.013 617.965 279.953ZM667.605 279.123C667.605 282.001 667.15 284.837 666.235 287.632C665.32 290.399 664.02 292.751 662.335 294.687C660.425 296.901 658.21 298.547 655.695 299.626C653.175 300.705 650.355 301.245 647.225 301.245C644.625 301.245 642.15 300.761 639.795 299.792C637.445 298.796 635.355 297.357 633.53 295.476C631.73 293.622 630.295 291.367 629.215 288.711C628.16 286.027 627.635 283.025 627.635 279.704C627.635 273.313 629.49 268.084 633.2 264.016C636.935 259.949 641.815 257.915 647.85 257.915C653.575 257.915 658.295 259.852 662 263.725C665.735 267.571 667.605 272.704 667.605 279.123ZM659.015 279.206C659.015 277.131 658.805 274.945 658.39 272.649C657.975 270.324 657.355 268.36 656.525 266.756C655.64 265.04 654.475 263.67 653.035 262.647C651.6 261.595 649.84 261.069 647.765 261.069C645.635 261.069 643.81 261.595 642.29 262.647C640.795 263.698 639.575 265.137 638.635 266.963C637.75 268.651 637.125 270.573 636.77 272.732C636.41 274.89 636.23 276.979 636.23 278.999C636.23 281.655 636.435 284.118 636.85 286.386C637.295 288.628 637.985 290.634 638.925 292.405C639.865 294.175 641.04 295.573 642.455 296.596C643.89 297.593 645.665 298.091 647.765 298.091C651.225 298.091 653.965 296.417 655.985 293.069C658.005 289.721 659.015 285.1 659.015 279.206ZM692.465 301.079C686.545 301.079 681.91 299.114 678.56 295.185C675.215 291.256 673.54 285.985 673.54 279.372C673.54 276.495 673.985 273.811 674.87 271.321C675.78 268.803 677.095 266.52 678.81 264.473C680.445 262.508 682.49 260.931 684.955 259.741C687.415 258.524 690.1 257.915 693.005 257.915C697.015 257.915 700.28 258.884 702.8 260.821C705.32 262.73 706.575 265.344 706.575 268.664C706.575 270.048 706.245 271.279 705.58 272.358C704.915 273.41 703.825 273.936 702.3 273.936C700.67 273.936 699.395 273.521 698.485 272.691C697.6 271.861 697.155 270.933 697.155 269.909C697.155 268.664 697.32 267.392 697.655 266.091C697.985 264.763 698.18 263.795 698.235 263.186C697.735 262.328 696.99 261.761 695.995 261.485C695.025 261.18 693.975 261.028 692.84 261.028C691.51 261.028 690.24 261.318 689.02 261.899C687.83 262.453 686.67 263.49 685.535 265.012C684.51 266.395 683.68 268.264 683.045 270.615C682.41 272.967 682.09 275.775 682.09 279.04C682.09 284.187 683.225 288.392 685.495 291.657C687.79 294.895 690.79 296.513 694.5 296.513C697.185 296.513 699.425 295.863 701.225 294.563C703.05 293.262 704.735 291.312 706.285 288.711L708.945 290.454C707.115 293.719 704.71 296.306 701.72 298.215C698.735 300.124 695.65 301.079 692.465 301.079ZM732.02 300H712.22V297.26C712.86 297.205 713.51 297.15 714.17 297.094C714.865 297.039 715.46 296.928 715.955 296.762C716.73 296.513 717.3 296.085 717.66 295.476C718.045 294.839 718.24 294.023 718.24 293.027V267.751C718.24 266.866 718.03 266.063 717.615 265.344C717.23 264.597 716.675 263.974 715.955 263.476C715.43 263.144 714.67 262.868 713.675 262.647C712.68 262.398 711.765 262.246 710.935 262.19V259.492L725.38 258.579L725.96 259.16V292.53C725.96 293.498 726.14 294.3 726.5 294.936C726.885 295.573 727.48 296.043 728.285 296.347C728.89 296.596 729.485 296.804 730.07 296.97C730.65 297.108 731.3 297.205 732.02 297.26V300ZM726.79 242.434C726.79 244.011 726.265 245.395 725.21 246.585C724.19 247.747 722.915 248.327 721.395 248.327C719.985 248.327 718.75 247.774 717.7 246.668C716.675 245.533 716.165 244.247 716.165 242.808C716.165 241.286 716.675 239.958 717.7 238.823C718.75 237.689 719.985 237.122 721.395 237.122C722.97 237.122 724.26 237.661 725.255 238.74C726.28 239.791 726.79 241.023 726.79 242.434ZM775.805 299.253C774.505 299.723 773.355 300.097 772.36 300.373C771.39 300.678 770.285 300.83 769.04 300.83C766.88 300.83 765.155 300.332 763.855 299.336C762.58 298.312 761.765 296.832 761.405 294.895H761.155C759.355 296.887 757.42 298.409 755.345 299.46C753.295 300.512 750.82 301.037 747.915 301.037C744.845 301.037 742.31 300.097 740.32 298.215C738.355 296.334 737.375 293.871 737.375 290.827C737.375 289.25 737.595 287.84 738.035 286.594C738.48 285.349 739.145 284.228 740.03 283.232C740.72 282.402 741.635 281.669 742.77 281.032C743.905 280.368 744.97 279.843 745.965 279.455C747.21 278.985 749.725 278.113 753.52 276.841C757.335 275.568 759.91 274.572 761.24 273.852V269.743C761.24 269.384 761.155 268.692 760.99 267.669C760.85 266.645 760.53 265.676 760.035 264.763C759.48 263.739 758.69 262.854 757.67 262.107C756.67 261.332 755.245 260.945 753.395 260.945C752.12 260.945 750.93 261.166 749.825 261.609C748.745 262.024 747.985 262.466 747.54 262.937C747.54 263.49 747.665 264.307 747.915 265.386C748.19 266.465 748.33 267.461 748.33 268.374C748.33 269.342 747.885 270.228 747 271.03C746.145 271.832 744.94 272.234 743.39 272.234C742.01 272.234 740.985 271.749 740.32 270.781C739.685 269.785 739.365 268.678 739.365 267.461C739.365 266.188 739.81 264.97 740.695 263.808C741.605 262.646 742.78 261.609 744.22 260.696C745.465 259.921 746.975 259.271 748.745 258.745C750.515 258.192 752.245 257.915 753.935 257.915C756.255 257.915 758.275 258.081 759.995 258.413C761.735 258.718 763.315 259.395 764.725 260.447C766.135 261.47 767.2 262.868 767.92 264.638C768.665 266.382 769.04 268.637 769.04 271.404C769.04 275.36 769 278.874 768.915 281.946C768.835 284.989 768.79 288.324 768.79 291.948C768.79 293.027 768.97 293.885 769.33 294.521C769.72 295.158 770.3 295.697 771.075 296.14C771.49 296.389 772.14 296.527 773.025 296.555C773.94 296.583 774.865 296.596 775.805 296.596V299.253ZM761.32 277.339C758.97 278.03 756.91 278.708 755.135 279.372C753.365 280.036 751.72 280.866 750.2 281.863C748.815 282.803 747.72 283.924 746.92 285.225C746.115 286.498 745.715 288.019 745.715 289.79C745.715 292.087 746.31 293.774 747.5 294.853C748.715 295.932 750.255 296.472 752.105 296.472C754.07 296.472 755.8 296.002 757.295 295.061C758.79 294.092 760.05 292.958 761.07 291.657L761.32 277.339ZM824.695 299.253L810.42 300.166L809.795 299.585V295.766L809.465 295.683C808.025 297.288 806.24 298.602 804.11 299.626C802.01 300.65 799.835 301.162 797.595 301.162C795.27 301.162 793.015 300.65 790.83 299.626C788.67 298.575 786.79 297.108 785.185 295.227C783.555 293.318 782.255 291.021 781.285 288.337C780.345 285.653 779.875 282.693 779.875 279.455C779.875 276.495 780.385 273.686 781.41 271.03C782.43 268.374 783.845 266.05 785.64 264.057C787.33 262.204 789.39 260.723 791.825 259.616C794.29 258.51 796.795 257.957 799.34 257.957C801.25 257.957 803.115 258.205 804.94 258.703C806.795 259.174 808.385 259.782 809.715 260.53V246.294C809.715 245.132 809.52 244.081 809.135 243.14C808.745 242.171 808.205 241.438 807.515 240.94C806.74 240.414 805.69 240.041 804.36 239.82C803.06 239.571 801.65 239.391 800.125 239.28V236.706L816.855 235.752L817.475 236.375V291.574C817.475 292.543 817.655 293.373 818.015 294.065C818.405 294.729 818.955 295.296 819.675 295.766C820.2 296.098 820.96 296.306 821.96 296.389C822.955 296.472 823.865 296.527 824.695 296.555V299.253ZM809.715 292.073V268.125C809.495 267.406 809.135 266.631 808.635 265.801C808.135 264.97 807.515 264.21 806.77 263.518C805.965 262.826 805.025 262.259 803.945 261.816C802.865 261.346 801.605 261.111 800.17 261.111C798.51 261.111 796.975 261.54 795.56 262.398C794.18 263.255 792.945 264.486 791.87 266.091C790.845 267.641 790.03 269.619 789.42 272.026C788.84 274.406 788.545 277.048 788.545 279.953C788.545 282.278 788.77 284.394 789.21 286.303C789.655 288.185 790.4 289.942 791.455 291.574C792.42 293.124 793.65 294.369 795.145 295.31C796.67 296.251 798.465 296.721 800.54 296.721C802.755 296.721 804.58 296.237 806.02 295.269C807.485 294.3 808.72 293.235 809.715 292.073ZM868.565 279.123C868.565 282.001 868.11 284.837 867.195 287.632C866.285 290.399 864.985 292.751 863.295 294.687C861.385 296.901 859.175 298.547 856.655 299.626C854.135 300.705 851.315 301.245 848.19 301.245C845.59 301.245 843.11 300.761 840.76 299.792C838.405 298.796 836.32 297.357 834.49 295.476C832.695 293.622 831.255 291.367 830.175 288.711C829.125 286.027 828.6 283.025 828.6 279.704C828.6 273.313 830.45 268.084 834.16 264.016C837.895 259.949 842.78 257.915 848.81 257.915C854.54 257.915 859.255 259.852 862.965 263.725C866.7 267.571 868.565 272.704 868.565 279.123ZM859.975 279.206C859.975 277.131 859.77 274.945 859.355 272.649C858.94 270.324 858.315 268.36 857.485 266.756C856.6 265.04 855.44 263.67 854 262.647C852.56 261.595 850.805 261.069 848.73 261.069C846.6 261.069 844.77 261.595 843.25 262.647C841.755 263.698 840.54 265.137 839.595 266.963C838.71 268.651 838.09 270.573 837.73 272.732C837.37 274.89 837.19 276.979 837.19 278.999C837.19 281.655 837.395 284.118 837.815 286.386C838.255 288.628 838.945 290.634 839.89 292.405C840.83 294.175 842.005 295.573 843.415 296.596C844.855 297.593 846.625 298.091 848.73 298.091C852.185 298.091 854.925 296.417 856.945 293.069C858.965 289.721 859.975 285.1 859.975 279.206ZM901.52 279.953C902.655 280.949 903.525 282.098 904.135 283.399C904.745 284.699 905.05 286.29 905.05 288.171C905.05 291.962 903.625 295.061 900.775 297.468C897.95 299.875 894.285 301.079 889.775 301.079C887.395 301.079 885.195 300.65 883.175 299.792C881.185 298.934 879.76 298.146 878.9 297.427L878.07 300.124H874.96L874.545 285.888H877.405C877.63 286.968 878.1 288.227 878.82 289.665C879.54 291.104 880.41 292.405 881.435 293.567C882.51 294.784 883.8 295.808 885.295 296.638C886.815 297.468 888.515 297.884 890.4 297.884C893.055 297.884 895.1 297.288 896.54 296.098C897.98 294.881 898.7 293.152 898.7 290.91C898.7 289.748 898.465 288.752 897.995 287.922C897.55 287.064 896.885 286.318 896 285.681C895.09 285.045 893.965 284.478 892.64 283.98C891.31 283.454 889.83 282.942 888.2 282.444C886.9 282.056 885.445 281.531 883.84 280.866C882.265 280.175 880.905 279.372 879.775 278.459C878.555 277.491 877.56 276.301 876.785 274.89C876.01 273.479 875.625 271.819 875.625 269.909C875.625 266.561 876.87 263.726 879.36 261.402C881.85 259.077 885.18 257.915 889.36 257.915C890.965 257.915 892.6 258.123 894.26 258.538C895.945 258.953 897.315 259.451 898.365 260.032L899.32 257.874H902.31L902.93 271.03H900.07C899.485 268.097 898.23 265.718 896.29 263.892C894.38 262.038 892.045 261.111 889.275 261.111C887.01 261.111 885.225 261.678 883.925 262.812C882.625 263.947 881.975 265.316 881.975 266.921C881.975 268.166 882.18 269.204 882.595 270.034C883.04 270.864 883.69 271.57 884.545 272.151C885.375 272.704 886.415 273.23 887.66 273.728C888.93 274.198 890.495 274.738 892.35 275.346C894.175 275.927 895.89 276.605 897.495 277.38C899.13 278.155 900.47 279.013 901.52 279.953Z" fill="white"/>
</g>
<defs>
<clipPath id="clip0_233_586">
<rect width="1000" height="500" fill="white"/>
</clipPath>
</defs>
</svg>
